<svg version="1.1" viewBox="0 0 900 900" width="225" height="225" xmlns="http://www.w3.org/2000/svg">

    <path transform="translate(454,217)"
        d="m0 0 24 3 33 7 36 12 19 9 24 14 16 11 10 8 14 12 11 11 7 8 10 13 10 14 14 23 12 26 7 18 8 27 7 34 3 28 1 13v24l-3 14-6 17-8 17-12 22-12 19-10 16-18 27-7 10-10 15-13 20-13 22-11 19-13 22-13 21-9 12-9 10-9 8-16 8-13 4-18 3-13 1h-23l-3-2-4-13-2-12-2-28-1-78v-431l1-26 2-24z"
        fill="#9D1416" data-index="1"
        style="visibility: visible; fill: rgb(255, 255, 255); stroke: rgb(255, 255, 255); opacity: 1;"></path>
    <path transform="translate(0,44)"
        d="m0 0 7 1 42 13 28 10 28 12 17 8 22 12 14 9 10 7 16 12 12 11 11 12 13 18 6 11 1 9-4 12-8 15-13 22-10 17-7 12-8 18-3 11v14l6 10 14 14 15 11 13 8 15 8 4 2-2 6-10 23-7 19-8 28-6 29-3 23-1 5-5-3-21-16-14-11-10-9-8-7-10-9-8-7-13-12-16-17-9-11-13-18-8-17-2-6v-19l4-15 6-12 7-11 10-13 13-15 8-10 11-14 10-14 12-19 8-14 7-16 1-9-4-12-7-11-17-17-19-14-22-14-23-13-19-10-17-9-23-11-13-6z"
        fill="#9D1416" data-index="2"
        style="visibility: visible; fill: rgb(255, 255, 255); stroke: rgb(255, 255, 255); opacity: 1;"></path>
    <path transform="translate(899,53)"
        d="m0 0h1v17l-19 10-25 13-17 10-16 10-10 7-14 10-13 12-9 10-6 11-2 6v10l8 19 12 21 8 12 11 15 11 14 8 9 9 11 11 14 10 16 5 12 3 9 1 6v12l-6 18-6 11-12 16-9 11-9 10-18 18-6 5-5 5-14 12-9 8-14 11-12 10-14 10-3 2-2-7-3-23-5-26-7-27-11-31-7-15-1-4 6-4 11-6 14-9 14-10 12-11 5-6 3-8v-14l-5-15-10-21-10-17-10-16-8-14-8-17-1-3v-11l8-14 6-9 13-15 15-15 17-13 17-11 16-9 14-8 28-13 26-10z"
        fill="#9D1416" data-index="3"
        style="visibility: visible; fill: rgb(255, 255, 255); stroke: rgb(255, 255, 255); opacity: 1;"></path>
    <path transform="translate(236,533)"
        d="m0 0 4 2 7 7v2l4 2v2l4 2 10 9 14 11 12 9 22 14 30 16 17 7 29 11 13 4-1 2-3 1-20-1-33-3-63-9-8-2-7-15-11-24-11-25-9-20z"
        fill="#9D1416" data-index="4"
        style="visibility: visible; fill: rgb(255, 255, 255); stroke: rgb(255, 255, 255); opacity: 1;"></path>
    <path transform="translate(670,555)"
        d="m0 0h2l-2 6-6 10-13 25-10 18-6 10-6 12-1 1-44 3-21 1h-60v-3l16-4 27-8 24-9 25-11 21-11 20-13 14-10 10-8 4-2v-2z"
        fill="#FEFEFD" data-index="5"
        style="visibility: visible; fill: rgb(0, 0, 0); stroke: rgb(0, 0, 0); opacity: 1;"></path>
</svg>