<svg version="1.0" xmlns="http://www.w3.org/2000/svg" width="989.000000pt" height="202.000000pt" viewBox="0 0 989.000000 202.000000" preserveAspectRatio="xMidYMid meet">

<g transform="translate(0.000000,202.000000) scale(0.100000,-0.100000)" fill="#000000" stroke="none">
<path d="M2410 1615 l0 -235 240 0 240 0 0 235 0 235 -240 0 -240 0 0 -235z" data-index="0" style="visibility: visible; opacity: 1; fill: rgb(255, 255, 255); stroke: rgb(255, 255, 255);"></path>
<path d="M3080 1615 l0 -235 240 0 c159 0 240 3 240 10 0 11 283 9 1253 -5
248 -4 367 -3 367 4 0 26 -81 133 -155 206 -138 136 -312 222 -495 244 -51 7
-351 11 -767 11 l-683 0 0 -235z" data-index="1" style="visibility: visible; opacity: 1; fill: rgb(255, 255, 255); stroke: rgb(255, 255, 255);"></path>
<path d="M5970 1838 c-104 -10 -179 -38 -259 -96 -55 -40 -146 -145 -171 -200
-25 -50 -50 -127 -50 -149 0 -11 187 -13 1100 -13 l1100 0 0 230 0 230 -102 2
c-229 6 -1558 3 -1618 -4z" data-index="2" style="visibility: visible; fill: rgb(255, 255, 255); stroke: rgb(255, 255, 255); opacity: 1;"></path>
<path d="M8046 1840 c-49 -15 -106 -62 -134 -109 -26 -44 -27 -54 -30 -198
l-4 -153 431 0 c237 0 431 3 431 8 0 4 -34 48 -76 97 -42 50 -128 152 -192
228 l-115 137 -141 -1 c-78 0 -154 -5 -170 -9z" data-index="3" style="visibility: visible; fill: rgb(255, 255, 255); stroke: rgb(255, 255, 255); opacity: 1;"></path>
<path d="M9230 1619 c-105 -125 -190 -229 -190 -233 0 -3 192 -6 426 -6 l425
0 -3 158 c-3 156 -4 160 -31 200 -16 22 -47 53 -70 69 -41 27 -46 28 -205 33
l-163 5 -189 -226z" data-index="4" style="visibility: visible; fill: rgb(255, 255, 255); stroke: rgb(255, 255, 255); opacity: 1;"></path>
<path d="M10 1610 l0 -230 1105 0 1105 0 0 230 0 230 -1105 0 -1105 0 0 -230z" data-index="5" style="visibility: visible; opacity: 1; fill: rgb(255, 255, 255); stroke: rgb(255, 255, 255);"></path>
<path d="M2410 650 l0 -550 240 0 240 0 0 550 0 550 -240 0 -240 0 0 -550z" data-index="6" style="visibility: visible; opacity: 1; fill: rgb(255, 255, 255); stroke: rgb(255, 255, 255);"></path>
<path d="M877 1176 c-10 -26 -8 -1074 2 -1081 8 -4 249 -7 444 -5 l27 0 0 550
0 550 -234 0 c-193 0 -235 -2 -239 -14z" data-index="7" style="visibility: visible; opacity: 1; fill: rgb(255, 255, 255); stroke: rgb(255, 255, 255);"></path>
<path d="M3080 965 l0 -225 240 0 240 0 0 225 0 225 -240 0 -240 0 0 -225z" data-index="8" style="visibility: visible; fill: rgb(255, 255, 255); stroke: rgb(255, 255, 255); opacity: 1;"></path>
<path d="M4760 1183 c0 -5 10 -33 22 -63 31 -78 31 -221 -1 -303 -43 -110
-142 -206 -258 -250 -57 -21 -65 -22 -738 -24 -374 -2 -686 -3 -692 -3 -10 0
-13 -51 -13 -220 l0 -220 418 -2 c685 -2 1014 2 1072 13 306 58 541 253 659
546 52 129 71 299 49 443 l-13 85 -252 3 c-139 1 -253 -1 -253 -5z" data-index="9" style="visibility: visible; opacity: 1; fill: rgb(255, 255, 255); stroke: rgb(255, 255, 255);"></path>
<path d="M5494 1173 c3 -10 8 -31 12 -48 13 -57 66 -148 117 -202 69 -73 128
-114 212 -149 l70 -29 623 -5 624 -5 24 -28 c24 -28 31 -76 18 -112 -18 -45
-13 -45 -889 -45 l-825 0 0 -230 0 -230 858 0 c697 0 869 3 923 14 178 38 339
183 402 364 27 76 29 253 4 331 -54 171 -196 314 -366 370 -63 21 -78 21 -938
21 -828 0 -874 -1 -869 -17z" data-index="10" style="visibility: visible; opacity: 1; fill: rgb(255, 255, 255); stroke: rgb(255, 255, 255);"></path>
<path d="M7880 640 c0 -517 1 -550 18 -551 37 -2 84 -2 270 -1 l192 2 0 500
c0 275 3 500 8 499 4 0 105 -118 225 -262 119 -144 234 -281 255 -305 l37 -43
105 123 c58 68 174 205 258 306 84 100 158 182 163 182 5 0 9 -198 9 -505 l0
-505 235 0 235 0 0 555 0 555 -1005 0 -1005 0 0 -550z" data-index="11" style="visibility: visible; fill: rgb(255, 255, 255); stroke: rgb(255, 255, 255); opacity: 1;"></path>
</g>
</svg>